<?xml version="1.0" encoding="UTF-8"?>
<svg id="Layer_1" xmlns="http://www.w3.org/2000/svg" version="1.1" viewBox="0 0 235.1 60">
  <!-- Generator: Adobe Illustrator 29.0.1, SVG Export Plug-In . SVG Version: 2.1.0 Build 192)  -->
  <defs>
    <style>
      .st0 {
        fill: #241c14;
      }

      .st1 {
        fill: #fff;
      }
    </style>
  </defs>
  <g>
    <g id="Shape_19">
      <path class="st0" d="M58.4,15.5c-1.7-7.2-6.1-11.9-13.4-13.9-3.4-.9-6.8-1.3-10.2-1.6-6.5-.4-12.9-.2-19.2,1.4C8.7,3.1,4.1,7.1,2,14,.4,19.2,0,24.5,0,29.9c0,4.6.4,9.1,1.4,13.6,1.8,8,6.5,13.2,14.6,14.9,3.3.7,6.8,1.1,10.2,1.4,6.1.4,12.2,0,18.2-1.4,7.3-1.8,12-6.2,13.8-13.5.9-3.5,1.3-7,1.6-10.6.4-6.3,0-12.5-1.4-18.7Z"/>
    </g>
    <path class="st1" d="M28.9,42.4c-2.5,0-4.7-.5-6.4-1.5-1.8-1-3.1-2.5-4-4.4-.9-1.9-1.2-4.1-.9-6.6s1-4.8,2.3-6.6c1.2-1.9,2.9-3.3,4.9-4.4,2-1,4.3-1.5,6.8-1.5s5.7.8,7.6,2.4c1.9,1.6,3,3.8,3.2,6.6h-6.7c-.2-1-.8-1.8-1.6-2.4-.8-.6-1.9-.8-3.2-.8s-3.3.6-4.5,1.8c-1.2,1.2-1.9,2.8-2.1,5s.1,3.8,1.1,5c1,1.2,2.3,1.8,4.1,1.8,2.8,0,4.7-1.2,5.6-3.6h6.7c-.8,2.9-2.3,5.2-4.5,6.9-2.2,1.7-5,2.5-8.3,2.5Z"/>
  </g>
  <g>
    <path class="st0" d="M83.8,44.9c-2.5,0-4.7-.5-6.4-1.5-1.8-1-3.1-2.5-4-4.4-.9-1.9-1.2-4.1-.9-6.6s1-4.8,2.3-6.6c1.2-1.9,2.9-3.3,4.9-4.4,2-1,4.3-1.5,6.8-1.5s5.7.8,7.6,2.4c1.9,1.6,3,3.8,3.2,6.6h-6.7c-.2-1-.8-1.8-1.6-2.4-.8-.6-1.9-.8-3.2-.8s-3.3.6-4.5,1.8c-1.2,1.2-1.9,2.8-2.1,5s.1,3.8,1.1,5c1,1.2,2.3,1.8,4.1,1.8,2.8,0,4.7-1.2,5.6-3.6h6.7c-.8,2.9-2.3,5.2-4.5,6.9-2.2,1.7-5,2.5-8.3,2.5Z"/>
    <path class="st0" d="M106.4,44.9c-2.8,0-5-.7-6.4-2.1-1.5-1.4-2.1-3.2-1.8-5.4s1.3-4.2,3.1-5.5c1.8-1.3,4.2-1.9,7.3-1.9h6.9v-.9c.4-2.6-1-3.9-4.2-3.9s-4.4.9-5.2,2.8h-6.6c.8-2.7,2.3-4.7,4.4-6s4.8-2,8-2,6.2.8,8,2.4c1.7,1.6,2.4,3.9,2.1,7l-.9,8.6h3.1l-.7,6.6h-6.7l.4-3.9h-1.7c-1,1.4-2.2,2.5-3.7,3.2-1.5.8-3.3,1.1-5.3,1.1ZM108,39.8c1.3,0,2.4-.2,3.4-.7,1-.5,1.8-1.1,2.5-1.8.6-.8,1-1.6,1.1-2.6v-.4s-6.5,0-6.5,0c-2.4,0-3.7.9-3.9,2.7s.2,1.6.8,2c.6.5,1.5.7,2.7.7Z"/>
    <path class="st0" d="M128.5,44.4l1.8-17.5h-3.3l.7-6.6h6.7l-.5,4.7h1.7c.8-1.7,2-2.9,3.4-3.8,1.5-.8,3.1-1.2,4.8-1.2h2l-.6,5.8h-2.3c-2.1,0-3.7.6-4.8,1.8-1.1,1.2-1.8,2.7-2,4.7l-1.3,12.2h-6.5Z"/>
    <path class="st0" d="M154.7,44.4c-1.7,0-3-.4-3.9-1.3-.9-.9-1.2-2.2-1-4l1.4-13.6h-4.1l.5-5.2h4.2l.8-7.2h6.5l-.8,7.2h5.6l-.5,5.2h-5.5l-1.4,13.7h6.1l-.5,5.2h-7.3Z"/>
    <path class="st0" d="M171.8,18c-1,0-1.8-.4-2.5-1.1-.6-.7-.9-1.6-.8-2.6s.6-1.9,1.3-2.6c.8-.7,1.7-1.1,2.7-1.1s1.8.4,2.5,1.1c.6.7.9,1.6.8,2.6s-.6,1.9-1.3,2.6c-.8.7-1.7,1.1-2.7,1.1ZM165.7,44.4l2.5-24.1h6.7l-2.5,24.1h-6.7Z"/>
    <path class="st0" d="M179.5,44.4l1.8-17.5h-3.3l.7-6.6h6.7l-.4,3.9h1.7c1.1-1.4,2.4-2.5,3.9-3.2,1.5-.8,3.3-1.1,5.4-1.1,3.3,0,5.8.9,7.5,2.8,1.6,1.8,2.3,4.3,2,7.4l-1.5,14.4h-6.7l1.4-13.2c.2-1.8-.1-3.1-1-4s-2.2-1.4-4-1.4-3.3.5-4.3,1.4-1.7,2.3-1.8,4l-1.4,13.2h-6.7Z"/>
    <path class="st0" d="M220.7,44.9c-2.6,0-4.9-.5-6.7-1.5-1.8-1-3.2-2.5-4.1-4.4-.9-1.9-1.2-4.1-.9-6.7s1-4.8,2.3-6.6c1.3-1.9,2.9-3.3,5-4.3,2.1-1,4.4-1.5,7.1-1.5s4.8.5,6.7,1.5c1.8,1,3.2,2.5,4,4.3.8,1.9,1.1,4.1.9,6.7s-1,4.8-2.3,6.6c-1.2,1.9-2.9,3.3-4.9,4.4-2,1-4.4,1.5-7,1.5ZM221.3,39.1c2,0,3.6-.6,4.8-1.8,1.2-1.2,1.9-2.9,2.1-5s-.1-3.7-1.1-4.9c-.9-1.2-2.4-1.8-4.4-1.8s-3.7.6-4.9,1.8c-1.2,1.2-1.9,2.8-2.1,4.9s.1,3.7,1.1,5c1,1.2,2.5,1.8,4.5,1.8Z"/>
  </g>
</svg>